{
	"asset":{
		"generator":"Khronos glTF Blender I/O v4.4.56",
		"version":"2.0"
	},
	"extensionsUsed":[
		"KHR_materials_specular",
		"KHR_materials_ior"
	],
	"scene":0,
	"scenes":[
		{
			"name":"Scene",
			"nodes":[
				4
			]
		}
	],
	"nodes":[
		{
			"name":"lid",
			"rotation":[
				-0.3150584101676941,
				5.2521690718989133e-17,
				5.2521700645156484e-17,
				0.9490723013877869
			],
			"translation":[
				-1.6543612251060553e-24,
				0.3072967827320099,
				0
			]
		},
		{
			"children":[
				0
			],
			"name":"box",
			"rotation":[
				0.3150583505630493,
				-1.045881096700699e-23,
				-6.9957026831439e-17,
				0.9490723013877869
			],
			"scale":[
				1,
				0.9999999403953552,
				0.9999998807907104
			]
		},
		{
			"mesh":0,
			"name":"Treasure_Chest_Bottom_Model",
			"skin":0
		},
		{
			"mesh":1,
			"name":"Treasure_Chest_Top_Model",
			"skin":0
		},
		{
			"children":[
				2,
				3,
				1
			],
			"name":"\u30a2\u30fc\u30de\u30c1\u30e5\u30a2"
		}
	],
	"animations":[
		{
			"channels":[
				{
					"sampler":0,
					"target":{
						"node":1,
						"path":"translation"
					}
				},
				{
					"sampler":1,
					"target":{
						"node":1,
						"path":"rotation"
					}
				},
				{
					"sampler":2,
					"target":{
						"node":1,
						"path":"scale"
					}
				},
				{
					"sampler":3,
					"target":{
						"node":0,
						"path":"translation"
					}
				},
				{
					"sampler":4,
					"target":{
						"node":0,
						"path":"rotation"
					}
				},
				{
					"sampler":5,
					"target":{
						"node":0,
						"path":"scale"
					}
				}
			],
			"name":"Open",
			"samplers":[
				{
					"input":13,
					"interpolation":"STEP",
					"output":14
				},
				{
					"input":13,
					"interpolation":"STEP",
					"output":15
				},
				{
					"input":13,
					"interpolation":"STEP",
					"output":16
				},
				{
					"input":13,
					"interpolation":"STEP",
					"output":17
				},
				{
					"input":18,
					"interpolation":"LINEAR",
					"output":19
				},
				{
					"input":13,
					"interpolation":"LINEAR",
					"output":20
				}
			]
		}
	],
	"materials":[
		{
			"doubleSided":true,
			"extensions":{
				"KHR_materials_specular":{
					"specularFactor":0
				},
				"KHR_materials_ior":{
					"ior":1.4500000476837158
				}
			},
			"name":"Material.001",
			"pbrMetallicRoughness":{
				"baseColorTexture":{
					"index":0
				},
				"metallicFactor":0,
				"roughnessFactor":0.5
			}
		}
	],
	"meshes":[
		{
			"name":"Cube.130",
			"primitives":[
				{
					"attributes":{
						"POSITION":0,
						"NORMAL":1,
						"TEXCOORD_0":2,
						"JOINTS_0":3,
						"WEIGHTS_0":4
					},
					"indices":5,
					"material":0
				}
			]
		},
		{
			"name":"Cylinder.166",
			"primitives":[
				{
					"attributes":{
						"POSITION":7,
						"NORMAL":8,
						"TEXCOORD_0":9,
						"JOINTS_0":10,
						"WEIGHTS_0":11
					},
					"indices":12,
					"material":0
				}
			]
		}
	],
	"textures":[
		{
			"sampler":0,
			"source":0
		}
	],
	"images":[
		{
			"mimeType":"image/png",
			"name":"Treasure_Chest_Basecolor",
			"uri":"Treasure_Chest_Basecolor.png"
		}
	],
	"skins":[
		{
			"inverseBindMatrices":6,
			"joints":[
				1,
				0
			],
			"name":"\u30a2\u30fc\u30de\u30c1\u30e5\u30a2"
		}
	],
	"accessors":[
		{
			"bufferView":0,
			"componentType":5126,
			"count":1061,
			"max":[
				0.3285335898399353,
				0.2542392313480377,
				0.17683446407318115
			],
			"min":[
				-0.3285335898399353,
				-0.0004991895984858274,
				-0.17683446407318115
			],
			"type":"VEC3"
		},
		{
			"bufferView":1,
			"componentType":5126,
			"count":1061,
			"type":"VEC3"
		},
		{
			"bufferView":2,
			"componentType":5126,
			"count":1061,
			"type":"VEC2"
		},
		{
			"bufferView":3,
			"componentType":5121,
			"count":1061,
			"type":"VEC4"
		},
		{
			"bufferView":4,
			"componentType":5126,
			"count":1061,
			"type":"VEC4"
		},
		{
			"bufferView":5,
			"componentType":5123,
			"count":2478,
			"type":"SCALAR"
		},
		{
			"bufferView":6,
			"componentType":5126,
			"count":2,
			"type":"MAT4"
		},
		{
			"bufferView":7,
			"componentType":5126,
			"count":1095,
			"max":[
				0.32744044065475464,
				0.4502626061439514,
				0.19634278118610382
			],
			"min":[
				-0.3274376392364502,
				0.17202213406562805,
				-0.1792672723531723
			],
			"type":"VEC3"
		},
		{
			"bufferView":8,
			"componentType":5126,
			"count":1095,
			"type":"VEC3"
		},
		{
			"bufferView":9,
			"componentType":5126,
			"count":1095,
			"type":"VEC2"
		},
		{
			"bufferView":10,
			"componentType":5121,
			"count":1095,
			"type":"VEC4"
		},
		{
			"bufferView":11,
			"componentType":5126,
			"count":1095,
			"type":"VEC4"
		},
		{
			"bufferView":12,
			"componentType":5123,
			"count":2700,
			"type":"SCALAR"
		},
		{
			"bufferView":13,
			"componentType":5126,
			"count":2,
			"max":[
				2.5
			],
			"min":[
				0
			],
			"type":"SCALAR"
		},
		{
			"bufferView":14,
			"componentType":5126,
			"count":2,
			"type":"VEC3"
		},
		{
			"bufferView":15,
			"componentType":5126,
			"count":2,
			"type":"VEC4"
		},
		{
			"bufferView":16,
			"componentType":5126,
			"count":2,
			"type":"VEC3"
		},
		{
			"bufferView":17,
			"componentType":5126,
			"count":2,
			"type":"VEC3"
		},
		{
			"bufferView":18,
			"componentType":5126,
			"count":61,
			"max":[
				2.5
			],
			"min":[
				0
			],
			"type":"SCALAR"
		},
		{
			"bufferView":19,
			"componentType":5126,
			"count":61,
			"type":"VEC4"
		},
		{
			"bufferView":20,
			"componentType":5126,
			"count":2,
			"type":"VEC3"
		}
	],
	"bufferViews":[
		{
			"buffer":0,
			"byteLength":12732,
			"byteOffset":0,
			"target":34962
		},
		{
			"buffer":0,
			"byteLength":12732,
			"byteOffset":12732,
			"target":34962
		},
		{
			"buffer":0,
			"byteLength":8488,
			"byteOffset":25464,
			"target":34962
		},
		{
			"buffer":0,
			"byteLength":4244,
			"byteOffset":33952,
			"target":34962
		},
		{
			"buffer":0,
			"byteLength":16976,
			"byteOffset":38196,
			"target":34962
		},
		{
			"buffer":0,
			"byteLength":4956,
			"byteOffset":55172,
			"target":34963
		},
		{
			"buffer":0,
			"byteLength":128,
			"byteOffset":60128
		},
		{
			"buffer":0,
			"byteLength":13140,
			"byteOffset":60256,
			"target":34962
		},
		{
			"buffer":0,
			"byteLength":13140,
			"byteOffset":73396,
			"target":34962
		},
		{
			"buffer":0,
			"byteLength":8760,
			"byteOffset":86536,
			"target":34962
		},
		{
			"buffer":0,
			"byteLength":4380,
			"byteOffset":95296,
			"target":34962
		},
		{
			"buffer":0,
			"byteLength":17520,
			"byteOffset":99676,
			"target":34962
		},
		{
			"buffer":0,
			"byteLength":5400,
			"byteOffset":117196,
			"target":34963
		},
		{
			"buffer":0,
			"byteLength":8,
			"byteOffset":122596
		},
		{
			"buffer":0,
			"byteLength":24,
			"byteOffset":122604
		},
		{
			"buffer":0,
			"byteLength":32,
			"byteOffset":122628
		},
		{
			"buffer":0,
			"byteLength":24,
			"byteOffset":122660
		},
		{
			"buffer":0,
			"byteLength":24,
			"byteOffset":122684
		},
		{
			"buffer":0,
			"byteLength":244,
			"byteOffset":122708
		},
		{
			"buffer":0,
			"byteLength":976,
			"byteOffset":122952
		},
		{
			"buffer":0,
			"byteLength":24,
			"byteOffset":123928
		}
	],
	"samplers":[
		{
			"magFilter":9729,
			"minFilter":9987
		}
	],
	"buffers":[
		{
			"byteLength":123952,
			"uri":"TreasureBox.bin"
		}
	]
}
